<?xml version="1.0" encoding="utf-8"?>
<svg id="line_gradient" data-name="line gradient" viewBox="0 0 117 64" xmlns="http://www.w3.org/2000/svg" xmlns:bx="https://boxy-svg.com">
  <defs>
    <style>.cls-1{fill:url(#linear-gradient);}</style>
    <linearGradient id="linear-gradient" x1="4" y1="32" x2="59.99998" y2="32" gradientUnits="userSpaceOnUse">
      <stop offset="0" stop-color="#fff"/>
      <stop offset="0" stop-color="#feb2ea"/>
      <stop offset="0.1071" stop-color="#fe97e6"/>
      <stop offset="0.3179" stop-color="#ca94ec"/>
      <stop offset="0.6009" stop-color="#8991f4"/>
      <stop offset="1" stop-color="#4a90f8"/>
      <stop offset="1"/>
    </linearGradient>
    <style bx:fonts="Archivo Narrow">@import url(https://fonts.googleapis.com/css2?family=Archivo+Narrow%3Aital%2Cwght%400%2C400%3B0%2C500%3B0%2C600%3B0%2C700%3B1%2C400%3B1%2C500%3B1%2C600%3B1%2C700&amp;display=swap);</style>
  </defs>
  <path class="cls-1" d="M31,9.67017v2.4851a1,1,0,1,0,2,0V9.67017a2.92873,2.92873,0,1,0-2,0ZM32,6a.92889.92889,0,0,1-.00006,1.85742A.92889.92889,0,0,1,32,6ZM57.07129,30.03613a2.9242,2.9242,0,0,0-2.74085,1.92774H42.64307v-4.1416h4.93017a3.86536,3.86536,0,0,0,3.09912-1.541l1.40442-1.83771a2.92869,2.92869,0,1,0-1.79114-2.69345,2.88818,2.88818,0,0,0,.327,1.31546l-1.53113,2.00379a1.88262,1.88262,0,0,1-1.5083.75293H42.64307V24.28613a3.0285,3.0285,0,0,0-3.50053-2.92862l0-4.93075A1.88469,1.88469,0,0,1,39.897,14.917L41.9,13.3869a2.93069,2.93069,0,1,0-1.38-1.46282c-1.53605,1.15776-3.46908,2.31554-3.37734,4.50274l-.0001,4.9306H33V17.86133a1,1,0,1,0-2,0v3.49609H26.85742V16.42676a3.86652,3.86652,0,0,0-1.54053-3.09961l-1.83728-1.40344a2.93,2.93,0,1,0-1.37874,1.46369L24.10449,14.918a1.88421,1.88421,0,0,1,.75293,1.50879v4.93066A3.02854,3.02854,0,0,0,21.357,24.2862l0,1.53607H16.42676a1.88358,1.88358,0,0,1-1.51026-.75586L13.38678,23.0647A2.91183,2.91183,0,1,0,11.92365,24.444l1.402,1.83429a3.8663,3.8663,0,0,0,3.10108,1.54395h4.93017v4.1416H9.66956a2.923,2.923,0,1,0,.00019,1.99989l11.68718.00011v4.14258H16.42676a3.86862,3.86862,0,0,0-3.09912,1.54L11.9234,41.48462a2.92869,2.92869,0,1,0,1.791,2.694,2.88753,2.88753,0,0,0-.32709-1.31552l1.5307-2.00372a1.88351,1.88351,0,0,1,1.50879-.75293h4.96991a3.03583,3.03583,0,0,0,3.46079,2.536l0,4.93075A1.88469,1.88469,0,0,1,24.103,49.083L22.1,50.6131A2.91125,2.91125,0,1,0,23.48,52.076c1.53513-1.15673,3.46962-2.31658,3.37734-4.50281l.0001-4.9306H31V54.32983a2.92325,2.92325,0,1,0,1.99989,0L33,42.64258h4.14258v4.93066a3.86652,3.86652,0,0,0,1.54053,3.09961l1.83728,1.40344a2.93,2.93,0,1,0,1.37874-1.46369L39.89551,49.082a1.88421,1.88421,0,0,1-.75293-1.50879V42.64258a3.036,3.036,0,0,0,3.46072-2.53621l4.96994.00008a1.8847,1.8847,0,0,1,1.51026.75488l1.52978,2.00256a2.91261,2.91261,0,1,0,1.46289-1.37976l-1.40234-1.83569a3.86976,3.86976,0,0,0-3.10059-1.542H42.64307V33.96387H54.33026a2.92375,2.92375,0,1,0,2.741-3.92774Zm-3.85693-9.21484a.92839.92839,0,0,1-.00006,1.85644A.92839.92839,0,0,1,53.21436,20.82129ZM43.21484,9.85742a.9284.9284,0,0,1-.00005,1.85644A.9284.9284,0,0,1,43.21484,9.85742Zm-23.35791.92871a.92864.92864,0,0,1,1.85693.00006A.92864.92864,0,0,1,19.85693,10.78613Zm-10,10.96387a.92889.92889,0,0,1,1.85742.00006A.92889.92889,0,0,1,9.85693,21.75ZM6.92871,33.89258a.92839.92839,0,0,1,.00006-1.85644A.92839.92839,0,0,1,6.92871,33.89258Zm3.85693,11.21484A.92889.92889,0,0,1,10.7857,43.25.92889.92889,0,0,1,10.78564,45.10742Zm9.99952,9.03516a.9284.9284,0,0,1,0-1.85644A.9284.9284,0,0,1,20.78516,54.14258ZM32,58a.92889.92889,0,0,1,.00006-1.85742A.92889.92889,0,0,1,32,58Zm12.14307-4.78613a.92864.92864,0,0,1-1.85693-.00006A.92864.92864,0,0,1,44.14307,53.21387Zm10-9.03516a.92889.92889,0,0,1-1.85742-.00006A.92889.92889,0,0,1,54.14307,44.17871Zm-13.5-4.46484a.92993.92993,0,0,1-.92871.92871H24.28564a.92993.92993,0,0,1-.92871-.92871V24.28613a.92993.92993,0,0,1,.92871-.92871H39.71436a.92993.92993,0,0,1,.92871.92871Zm16.42822-5.82129a.9284.9284,0,0,1,.00006-1.85644A.9284.9284,0,0,1,57.07129,33.89258ZM32.00006,16.07037a1.00019,1.00019,0,0,1-.00006-2A1.00019,1.00019,0,0,1,32.00006,16.07037Z"/>
  <text style="fill: rgb(6, 4, 42); font-family: &quot;Archivo Narrow&quot;; font-size: 26px; white-space: pre;" x="64.921" y="40.785">SGA</text>
</svg>