<?xml version="1.0" encoding="UTF-8"?>
<svg version="1.1" xmlns="http://www.w3.org/2000/svg" width="471" height="136">
<path d="M0 0 C13.50261217 8.7284743 27.89869577 20.35598529 35.28125 35.12109375 C35.32147391 37.45408035 35.32445247 39.78816041 35.28125 42.12109375 C31.29276386 44.14480839 27.29161473 46.14110212 23.28125 48.12109375 C22.58515625 48.47300781 21.8890625 48.82492188 21.171875 49.1875 C16.98621024 51.17473075 13.87848396 51.63602107 9.28125 51.12109375 C6.01438178 49.49518698 3.11463557 47.43539333 0.15625 45.30859375 C-1.40833679 44.21800739 -2.97342701 43.12814283 -4.5390625 42.0390625 C-5.26512695 41.52907715 -5.99119141 41.0190918 -6.73925781 40.49365234 C-10.87820302 37.32299929 -10.87820302 37.32299929 -15.71875 36.12109375 C-17.35177535 38.40556062 -18.86339394 40.67845878 -20.34375 43.05859375 C-20.97410156 44.04762695 -20.97410156 44.04762695 -21.6171875 45.05664062 C-23.76140339 47.88826382 -23.76140339 47.88826382 -24.71875 51.12109375 C-23.8009375 50.90453125 -22.883125 50.68796875 -21.9375 50.46484375 C-15.40475681 48.98262471 -9.42165331 47.71891955 -2.71875 48.12109375 C-2.38875 49.11109375 -2.05875 50.10109375 -1.71875 51.12109375 C1.6978013 51.88988945 4.86005628 52.24881545 8.359375 52.26293945 C9.83615723 52.27349113 9.83615723 52.27349113 11.34277344 52.28425598 C12.3949707 52.28842026 13.44716797 52.29258453 14.53125 52.296875 C16.77084284 52.32006281 19.01042622 52.34417971 21.25 52.36914062 C24.77220096 52.40431344 28.29405062 52.43364237 31.81640625 52.44702148 C35.22178207 52.46247885 38.62614211 52.50266078 42.03125 52.546875 C43.08344727 52.54496658 44.13564453 52.54305817 45.21972656 52.54109192 C52.52125074 52.66339394 52.52125074 52.66339394 56.40234375 55.00073242 C60.82227865 59.98866572 60.71247541 65.82161663 60.6015625 72.20703125 C60.12852381 76.51052954 58.90971837 78.68948226 56.28125 82.12109375 C55.58 82.57484375 54.87875 83.02859375 54.15625 83.49609375 C51.43862584 85.85136802 51.4755555 88.40008947 50.828125 91.84375 C49.40437695 97.77264366 45.10656378 101.71668908 40.28125 105.12109375 C37.79866134 106.29082788 35.4760886 107.28091844 32.90625 108.18359375 C31.87383179 108.55810669 31.87383179 108.55810669 30.82055664 108.94018555 C7.32489769 117.22509013 -23.20964242 120.91488104 -46.80859375 110.68359375 C-53.02741169 107.3446311 -58.84447761 103.25023006 -63.71875 98.12109375 C-63.74453125 98.70117188 -63.7703125 99.28125 -63.796875 99.87890625 C-64.19379754 105.34561215 -65.03309926 108.83776992 -68.71875 113.12109375 C-76.32314166 119.4580868 -85.47558648 120.76621858 -95.1171875 120.53515625 C-103.26354186 119.59859056 -111.61104578 116.50136498 -117.6015625 110.734375 C-118.71875 109.12109375 -118.71875 109.12109375 -119.40625 105.43359375 C-118.71875 102.12109375 -118.71875 102.12109375 -116.69140625 100.76953125 C-114.43131295 99.25365841 -114.43131295 99.25365841 -114.328125 96.421875 C-114.37453125 95.43574219 -114.4209375 94.44960937 -114.46875 93.43359375 C-114.50484375 92.43972656 -114.5409375 91.44585937 -114.578125 90.421875 C-114.62453125 89.66261719 -114.6709375 88.90335937 -114.71875 88.12109375 C-121.68858308 89.44295864 -128.14768774 91.62315681 -134.77734375 94.09765625 C-137.71875 95.12109375 -137.71875 95.12109375 -139.71875 95.12109375 C-139.5640625 96.79171875 -139.5640625 96.79171875 -139.40625 98.49609375 C-139.4406412 104.97310292 -142.31622483 110.32436267 -146.48046875 115.171875 C-152.75549449 121.11596632 -159.82134026 124.25736281 -168.46875 124.62109375 C-173.2792621 124.41754599 -176.10561752 123.46985068 -179.71875 120.12109375 C-184.61841795 113.63234431 -185.78392755 108.1147235 -184.71875 100.12109375 C-183.34284809 96.3624346 -181.7848383 92.88163597 -180.03125 89.28515625 C-178.7646939 86.23185137 -178.42654165 84.37191165 -178.71875 81.12109375 C-179.481875 80.89421875 -180.245 80.66734375 -181.03125 80.43359375 C-184.40314721 78.78685325 -185.26579383 77.56230573 -186.71875 74.12109375 C-187.13992349 68.6525237 -186.06191818 64.41996313 -183.96875 59.43359375 C-183.71609375 58.78326172 -183.4634375 58.13292969 -183.203125 57.46289062 C-181.616726 53.57224709 -180.09092376 50.66828928 -176.71875 48.12109375 C-174.65357721 47.47641018 -172.56702741 46.89814921 -170.46875 46.37109375 C-164.35195282 44.12186788 -161.95396849 41.54260992 -159.21875 35.87109375 C-156.27610872 29.41939788 -154.14099874 22.67233357 -152.43945312 15.79394531 C-151.3044574 11.34604698 -150.1009969 8.27260501 -146.71875 5.12109375 C-144.05116008 3.96313671 -141.6737969 3.08800446 -138.90625 2.30859375 C-138.21982422 2.09267578 -137.53339844 1.87675781 -136.82617188 1.65429688 C-130.97811056 -0.08850285 -125.92898778 -0.50514029 -119.96875 1.18359375 C-116.70762411 3.12772649 -115.541191 4.32300462 -114.17382812 7.81762695 C-113.16377417 12.9302123 -114.46267241 18.11809355 -115.34375 23.18359375 C-115.63427246 24.98437378 -115.63427246 24.98437378 -115.93066406 26.8215332 C-117.27165929 34.97520396 -118.75943325 43.09086372 -120.71875 51.12109375 C-120.10386719 51.10949219 -119.48898438 51.09789062 -118.85546875 51.0859375 C-118.04722656 51.07691406 -117.23898438 51.06789062 -116.40625 51.05859375 C-115.60574219 51.04699219 -114.80523437 51.03539062 -113.98046875 51.0234375 C-111.71875 51.12109375 -111.71875 51.12109375 -108.71875 52.12109375 C-108.66831543 51.2794165 -108.61788086 50.43773926 -108.56591797 49.57055664 C-107.99850317 40.83827171 -107.06779825 32.22504224 -105.84375 23.55859375 C-105.60205078 21.71297852 -105.60205078 21.71297852 -105.35546875 19.83007812 C-105.10603516 18.05407227 -105.10603516 18.05407227 -104.8515625 16.2421875 C-104.70605957 15.18443115 -104.56055664 14.1266748 -104.41064453 13.03686523 C-103.32119504 8.44572363 -101.61911868 5.8213805 -97.90625 2.93359375 C-91.32990362 -0.80589733 -85.22674659 -1.90272397 -77.71875 -0.87890625 C-71.5441818 1.45741685 -68.0870897 5.60926514 -64.71875 11.12109375 C-63.46441542 14.88409749 -63.61179578 18.39320284 -63.65625 22.30859375 C-63.66076172 23.05818359 -63.66527344 23.80777344 -63.66992188 24.58007812 C-63.68168646 26.42711758 -63.69962135 28.27411588 -63.71875 30.12109375 C-63.32945312 29.54101562 -62.94015625 28.9609375 -62.5390625 28.36328125 C-58.0951838 22.15823403 -53.4850777 18.59275082 -46.71875 15.12109375 C-46.89664063 14.23357422 -46.89664063 14.23357422 -47.078125 13.328125 C-47.20703125 12.53792969 -47.3359375 11.74773438 -47.46875 10.93359375 C-47.67757812 9.76763672 -47.67757812 9.76763672 -47.890625 8.578125 C-47.63769292 4.96234589 -46.29001201 3.63123225 -43.71875 1.12109375 C-29.49136931 -6.65924136 -14.32582406 -8.16506256 0 0 Z " fill="#1266B4" transform="translate(193.71875,8.87890625)"/>
<path d="M0 0 C4.44282857 2.27324728 7.04393248 5.46234225 9 10 C9.24050903 12.11346436 9.24050903 12.11346436 9.22705078 14.40136719 C9.22689972 15.2619574 9.22674866 16.12254761 9.22659302 17.00921631 C9.21627045 17.92914368 9.20594788 18.84907104 9.1953125 19.796875 C9.1924826 20.74564514 9.18965271 21.69441528 9.18673706 22.67193604 C9.17555448 25.69808639 9.1504533 28.7239393 9.125 31.75 C9.11496772 33.80338114 9.1058423 35.85676692 9.09765625 37.91015625 C9.07562141 42.94021854 9.04110462 47.97005886 9 53 C8.01 53.495 8.01 53.495 7 54 C6.00487445 51.01462335 5.87106334 49.0307936 5.8671875 45.9140625 C5.86464966 44.40283813 5.86464966 44.40283813 5.86206055 42.86108398 C5.86633057 41.79317627 5.87060059 40.72526855 5.875 39.625 C5.87463745 37.99703491 5.87463745 37.99703491 5.87426758 36.33618164 C5.89596054 30.65305187 6.08477364 25.08723175 6.6875 19.4375 C7.2793617 12.98706523 6.15950555 9.63189739 2 4.5625 C-3.60365886 1.64392768 -9.72716153 2.38363702 -15.6875 4 C-16.8321875 4.495 -16.8321875 4.495 -18 5 C-18 5.99 -18 6.98 -18 8 C-16.824375 8.4021875 -16.824375 8.4021875 -15.625 8.8125 C-13 10 -13 10 -11 13 C-10.75949097 15.22099304 -10.75949097 15.22099304 -10.77294922 17.83862305 C-10.77310028 18.8194133 -10.77325134 19.80020355 -10.77340698 20.81071472 C-10.78372955 21.86704605 -10.79405212 22.92337738 -10.8046875 24.01171875 C-10.8075174 25.09508011 -10.81034729 26.17844147 -10.81326294 27.29463196 C-10.82446909 30.75903308 -10.84957466 34.22317685 -10.875 37.6875 C-10.88502923 40.03450148 -10.89415518 42.381507 -10.90234375 44.72851562 C-10.92440984 50.48576507 -10.95789173 56.24286415 -11 62 C-9.97048218 62.18175781 -9.97048218 62.18175781 -8.92016602 62.3671875 C-7.56942993 62.61855469 -7.56942993 62.61855469 -6.19140625 62.875 C-5.29881104 63.03742188 -4.40621582 63.19984375 -3.48657227 63.3671875 C-0.24660247 64.19173357 1.68896738 65.61441794 4 68 C5.42041821 70.84083641 5.31452272 72.85477278 5 76 C3.6875 78.3125 3.6875 78.3125 1 80 C-1.88879507 80.46321787 -4.71459807 80.6887562 -7.63671875 80.82421875 C-9.95576822 80.73819854 -9.95576822 80.73819854 -11 82 C-11.08758003 83.99964982 -11.10696576 86.0023611 -11.09765625 88.00390625 C-11.09443359 89.21884766 -11.09121094 90.43378906 -11.08789062 91.68554688 C-11.07951172 92.96494141 -11.07113281 94.24433594 -11.0625 95.5625 C-11.05798828 96.84576172 -11.05347656 98.12902344 -11.04882812 99.45117188 C-11.03699545 102.63416022 -11.02051068 105.81705762 -11 109 C-9.2299543 108.55005536 -7.46213849 108.0913323 -5.6953125 107.62890625 C-4.71062988 107.37439697 -3.72594727 107.1198877 -2.71142578 106.85766602 C0.53097447 105.83204454 2.63823008 104.44049559 5 102 C7.12208575 97.75582849 6.08525532 92.26188249 5.375 87.6875 C5 84 5 84 7 81 C11.12098299 96.71124764 11.12098299 96.71124764 7.9375 103.1484375 C4.44956423 107.64105043 0.41040883 109.5762082 -5 111 C-5.62390625 111.18175781 -6.2478125 111.36351563 -6.890625 111.55078125 C-15.43598463 113.37062636 -23.37419355 112.12657899 -31 108 C-34.125 105.75 -34.125 105.75 -36 104 C-35.45276317 100.62537285 -34.9451 98.91765 -33 96 C-32.7956783 93.91557818 -32.7956783 93.91557818 -32.9375 91.6875 C-33.08585835 87.9914421 -32.67727747 84.63839759 -32 81 C-40.3101191 80.51036941 -47.08660194 81.27709204 -54.96484375 83.9765625 C-58.93209239 85.31429627 -62.90089629 86.16628399 -67 87 C-66.9175 88.11375 -66.835 89.2275 -66.75 90.375 C-66.78730494 97.40076391 -69.41956656 103.68011249 -74.125 108.875 C-78.79928101 113.08984313 -84.18660598 115.70803702 -90.5 116.19140625 C-94.56512368 115.97076631 -96.43089305 115.53992198 -99.4375 112.6875 C-100.2109375 111.3571875 -100.2109375 111.3571875 -101 110 C-101.4125 109.38125 -101.825 108.7625 -102.25 108.125 C-104.61861783 101.41391614 -101.9329761 95.72884714 -99.1328125 89.69335938 C-97.04315713 84.91202887 -96.47194924 81.23048178 -97 76 C-99.83068782 73.55680773 -99.83068782 73.55680773 -103 72 C-105.13498358 67.73003284 -104.36342545 63.43330548 -103.234375 58.98046875 C-101.27275478 53.37879975 -99.58089857 49.6755783 -94.1875 46.875 C-89.88773986 45.14091383 -85.53875727 43.92456167 -81 43 C-80.73574219 41.76636719 -80.47148438 40.53273437 -80.19921875 39.26171875 C-78.89050378 33.40174964 -77.39889413 27.60301764 -75.8125 21.8125 C-75.54630859 20.75869141 -75.28011719 19.70488281 -75.00585938 18.61914062 C-73.12268824 11.84228667 -71.070237 7.74221552 -65 4 C-59.02124149 0.72199102 -51.68728408 -0.07417791 -45 1 C-42.67578125 2.16015625 -42.67578125 2.16015625 -41 4 C-39.24110436 18.53287524 -44.81758201 37.19802065 -49 51 C-38.11 51.495 -38.11 51.495 -27 52 C-26.9175 50.06125 -26.835 48.1225 -26.75 46.125 C-26.3115577 38.50072858 -25.21355421 30.9824815 -24.0625 23.4375 C-23.80774902 21.74294678 -23.80774902 21.74294678 -23.54785156 20.01416016 C-21.39483591 6.29022321 -21.39483591 6.29022321 -17.5 2.6875 C-12.03172623 -1.00358479 -6.45787218 -0.82260991 0 0 Z " fill="#1266B4" transform="translate(116,13)"/>
<path d="M0 0 C13.50261217 8.7284743 27.89869577 20.35598529 35.28125 35.12109375 C35.32147391 37.45408035 35.32445247 39.78816041 35.28125 42.12109375 C31.29276386 44.14480839 27.29161473 46.14110212 23.28125 48.12109375 C22.58515625 48.47300781 21.8890625 48.82492188 21.171875 49.1875 C16.98621024 51.17473075 13.87848396 51.63602107 9.28125 51.12109375 C6.01438178 49.49518698 3.11463557 47.43539333 0.15625 45.30859375 C-1.40833679 44.21800739 -2.97342701 43.12814283 -4.5390625 42.0390625 C-5.26512695 41.52907715 -5.99119141 41.0190918 -6.73925781 40.49365234 C-10.87820302 37.32299929 -10.87820302 37.32299929 -15.71875 36.12109375 C-17.35177535 38.40556062 -18.86339394 40.67845878 -20.34375 43.05859375 C-20.97410156 44.04762695 -20.97410156 44.04762695 -21.6171875 45.05664062 C-23.76140339 47.88826382 -23.76140339 47.88826382 -24.71875 51.12109375 C-23.8009375 50.90453125 -22.883125 50.68796875 -21.9375 50.46484375 C-15.40475681 48.98262471 -9.42165331 47.71891955 -2.71875 48.12109375 C-2.38875 49.11109375 -2.05875 50.10109375 -1.71875 51.12109375 C1.6978013 51.88988945 4.86005628 52.24881545 8.359375 52.26293945 C9.83615723 52.27349113 9.83615723 52.27349113 11.34277344 52.28425598 C12.3949707 52.28842026 13.44716797 52.29258453 14.53125 52.296875 C16.77084284 52.32006281 19.01042622 52.34417971 21.25 52.36914062 C24.77220096 52.40431344 28.29405062 52.43364237 31.81640625 52.44702148 C35.22178207 52.46247885 38.62614211 52.50266078 42.03125 52.546875 C43.08344727 52.54496658 44.13564453 52.54305817 45.21972656 52.54109192 C52.52125074 52.66339394 52.52125074 52.66339394 56.40234375 55.00073242 C60.82227865 59.98866572 60.71247541 65.82161663 60.6015625 72.20703125 C60.12852381 76.51052954 58.90971837 78.68948226 56.28125 82.12109375 C55.58 82.57484375 54.87875 83.02859375 54.15625 83.49609375 C51.43862584 85.85136802 51.4755555 88.40008947 50.828125 91.84375 C49.40437695 97.77264366 45.10656378 101.71668908 40.28125 105.12109375 C37.79866134 106.29082788 35.4760886 107.28091844 32.90625 108.18359375 C31.87383179 108.55810669 31.87383179 108.55810669 30.82055664 108.94018555 C7.32489769 117.22509013 -23.20964242 120.91488104 -46.80859375 110.68359375 C-53.02741169 107.3446311 -58.84447761 103.25023006 -63.71875 98.12109375 C-63.74453125 98.70117188 -63.7703125 99.28125 -63.796875 99.87890625 C-64.19379754 105.34561215 -65.03309926 108.83776992 -68.71875 113.12109375 C-76.32314166 119.4580868 -85.47558648 120.76621858 -95.1171875 120.53515625 C-103.26354186 119.59859056 -111.61104578 116.50136498 -117.6015625 110.734375 C-118.71875 109.12109375 -118.71875 109.12109375 -119.40625 105.43359375 C-118.71875 102.12109375 -118.71875 102.12109375 -116.69140625 100.76953125 C-114.43131295 99.25365841 -114.43131295 99.25365841 -114.328125 96.421875 C-114.37453125 95.43574219 -114.4209375 94.44960937 -114.46875 93.43359375 C-114.50484375 92.43972656 -114.5409375 91.44585937 -114.578125 90.421875 C-114.62453125 89.66261719 -114.6709375 88.90335937 -114.71875 88.12109375 C-121.68858308 89.44295864 -128.14768774 91.62315681 -134.77734375 94.09765625 C-137.71875 95.12109375 -137.71875 95.12109375 -139.71875 95.12109375 C-139.5640625 96.79171875 -139.5640625 96.79171875 -139.40625 98.49609375 C-139.4406412 104.97310292 -142.31622483 110.32436267 -146.48046875 115.171875 C-152.75549449 121.11596632 -159.82134026 124.25736281 -168.46875 124.62109375 C-173.2792621 124.41754599 -176.10561752 123.46985068 -179.71875 120.12109375 C-184.61841795 113.63234431 -185.78392755 108.1147235 -184.71875 100.12109375 C-183.34284809 96.3624346 -181.7848383 92.88163597 -180.03125 89.28515625 C-178.7646939 86.23185137 -178.42654165 84.37191165 -178.71875 81.12109375 C-179.481875 80.89421875 -180.245 80.66734375 -181.03125 80.43359375 C-184.40314721 78.78685325 -185.26579383 77.56230573 -186.71875 74.12109375 C-187.13992349 68.6525237 -186.06191818 64.41996313 -183.96875 59.43359375 C-183.71609375 58.78326172 -183.4634375 58.13292969 -183.203125 57.46289062 C-181.616726 53.57224709 -180.09092376 50.66828928 -176.71875 48.12109375 C-174.65357721 47.47641018 -172.56702741 46.89814921 -170.46875 46.37109375 C-164.35195282 44.12186788 -161.95396849 41.54260992 -159.21875 35.87109375 C-156.27610872 29.41939788 -154.14099874 22.67233357 -152.43945312 15.79394531 C-151.3044574 11.34604698 -150.1009969 8.27260501 -146.71875 5.12109375 C-144.05116008 3.96313671 -141.6737969 3.08800446 -138.90625 2.30859375 C-138.21982422 2.09267578 -137.53339844 1.87675781 -136.82617188 1.65429688 C-130.97811056 -0.08850285 -125.92898778 -0.50514029 -119.96875 1.18359375 C-116.70762411 3.12772649 -115.541191 4.32300462 -114.17382812 7.81762695 C-113.16377417 12.9302123 -114.46267241 18.11809355 -115.34375 23.18359375 C-115.63427246 24.98437378 -115.63427246 24.98437378 -115.93066406 26.8215332 C-117.27165929 34.97520396 -118.75943325 43.09086372 -120.71875 51.12109375 C-120.10386719 51.10949219 -119.48898438 51.09789062 -118.85546875 51.0859375 C-118.04722656 51.07691406 -117.23898438 51.06789062 -116.40625 51.05859375 C-115.60574219 51.04699219 -114.80523437 51.03539062 -113.98046875 51.0234375 C-111.71875 51.12109375 -111.71875 51.12109375 -108.71875 52.12109375 C-108.66831543 51.2794165 -108.61788086 50.43773926 -108.56591797 49.57055664 C-107.99850317 40.83827171 -107.06779825 32.22504224 -105.84375 23.55859375 C-105.60205078 21.71297852 -105.60205078 21.71297852 -105.35546875 19.83007812 C-105.10603516 18.05407227 -105.10603516 18.05407227 -104.8515625 16.2421875 C-104.70605957 15.18443115 -104.56055664 14.1266748 -104.41064453 13.03686523 C-103.32119504 8.44572363 -101.61911868 5.8213805 -97.90625 2.93359375 C-91.32990362 -0.80589733 -85.22674659 -1.90272397 -77.71875 -0.87890625 C-71.5441818 1.45741685 -68.0870897 5.60926514 -64.71875 11.12109375 C-63.46441542 14.88409749 -63.61179578 18.39320284 -63.65625 22.30859375 C-63.66076172 23.05818359 -63.66527344 23.80777344 -63.66992188 24.58007812 C-63.68168646 26.42711758 -63.69962135 28.27411588 -63.71875 30.12109375 C-63.32945312 29.54101562 -62.94015625 28.9609375 -62.5390625 28.36328125 C-58.0951838 22.15823403 -53.4850777 18.59275082 -46.71875 15.12109375 C-46.89664063 14.23357422 -46.89664063 14.23357422 -47.078125 13.328125 C-47.20703125 12.53792969 -47.3359375 11.74773438 -47.46875 10.93359375 C-47.67757812 9.76763672 -47.67757812 9.76763672 -47.890625 8.578125 C-47.63769292 4.96234589 -46.29001201 3.63123225 -43.71875 1.12109375 C-29.49136931 -6.65924136 -14.32582406 -8.16506256 0 0 Z M-42.71875 7.12109375 C-42.74128443 9.57072552 -42.74128443 9.57072552 -42.34375 12.24609375 C-42.23289063 13.15617187 -42.12203125 14.06625 -42.0078125 15.00390625 C-41.86472656 16.05191406 -41.86472656 16.05191406 -41.71875 17.12109375 C-42.80542969 17.75724609 -42.80542969 17.75724609 -43.9140625 18.40625 C-58.30987622 27.13971032 -63.21322323 38.56667805 -68.71875 54.12109375 C-68.69780273 52.9407959 -68.67685547 51.76049805 -68.65527344 50.54443359 C-68.58267231 46.15002658 -68.53687729 41.75567221 -68.49902344 37.36083984 C-68.47895371 35.4616605 -68.45169149 33.5625426 -68.41699219 31.66357422 C-68.36826891 28.92790536 -68.34573493 26.19305604 -68.328125 23.45703125 C-68.30747986 22.61304779 -68.28683472 21.76906433 -68.26556396 20.89950562 C-68.26351197 15.46342903 -69.1331655 12.45118303 -72.71875 8.12109375 C-75.47409606 5.37033229 -76.98431762 4.24610352 -80.83984375 3.58984375 C-89.05801704 3.66728237 -92.88919998 4.29154373 -98.71875 10.12109375 C-102.57084493 24.66224792 -104.71875 41.11369486 -104.71875 56.12109375 C-115.60875 55.62609375 -115.60875 55.62609375 -126.71875 55.12109375 C-126.14125 52.97609375 -125.56375 50.83109375 -124.96875 48.62109375 C-123.0943228 41.33104514 -121.71834795 33.97907375 -120.46875 26.55859375 C-120.29375977 25.53636719 -120.11876953 24.51414062 -119.93847656 23.4609375 C-118.59732898 15.81870722 -118.59732898 15.81870722 -118.71875 8.12109375 C-120.77372281 5.78415955 -122.11825742 5.22757087 -125.1640625 4.6875 C-133.82263424 4.67487818 -141.60213012 6.55946346 -148.3112793 12.35668945 C-151.38303577 16.20744123 -152.25722829 21.18426797 -153.46875 25.87109375 C-153.75878906 26.9178125 -154.04882812 27.96453125 -154.34765625 29.04296875 C-155.98729476 35.03251583 -157.42293589 41.04855309 -158.71875 47.12109375 C-159.3478125 47.29125 -159.976875 47.46140625 -160.625 47.63671875 C-163.34418661 48.40660893 -166.030202 49.25047977 -168.71875 50.12109375 C-169.46769531 50.34152344 -170.21664062 50.56195313 -170.98828125 50.7890625 C-174.59570808 52.14788293 -176.29682957 53.42610559 -178.32421875 56.765625 C-180.96914964 62.65559715 -182.53801344 67.6840239 -181.71875 74.12109375 C-179.99989923 77.27294943 -179.99989923 77.27294943 -177.09375 78.30859375 C-176.31 78.90671875 -175.52625 79.50484375 -174.71875 80.12109375 C-174.16172372 86.15770416 -175.19994861 90.25455563 -177.71875 95.68359375 C-179.98782487 100.60503316 -181.26509374 104.61863179 -180.71875 110.12109375 C-179.8549341 112.49266093 -179.8549341 112.49266093 -178.46875 114.43359375 C-178.05109375 115.08972656 -177.6334375 115.74585937 -177.203125 116.421875 C-175.48278602 118.39121041 -174.1720499 119.2285686 -171.71875 120.12109375 C-165.53869888 120.46959287 -159.74242067 118.6714272 -154.71875 115.12109375 C-149.17343288 110.1091939 -145.11975562 104.44353198 -144.546875 96.83984375 C-144.53344498 94.93278029 -144.61672964 93.02547377 -144.71875 91.12109375 C-143.501875 90.87359375 -142.285 90.62609375 -141.03125 90.37109375 C-137.05951928 89.51334909 -133.31083394 88.31257938 -129.46875 86.99609375 C-122.79407981 84.86839487 -116.66940584 84.71156247 -109.71875 85.12109375 C-111.08768204 101.49002579 -111.08768204 101.49002579 -113.71875 104.12109375 C-113.85966482 106.59436329 -113.85966482 106.59436329 -112.71875 109.12109375 C-104.88556174 115.6169084 -96.66287751 117.04493527 -86.71875 116.12109375 C-79.70520463 114.92390251 -74.53962407 112.41373532 -69.71875 107.12109375 C-68.42814967 104.53989309 -68.58602667 102.62689546 -68.59375 99.74609375 C-68.59117188 98.78960937 -68.58859375 97.833125 -68.5859375 96.84765625 C-68.70411398 94.42156266 -69.10453219 92.45221962 -69.71875 90.12109375 C-69.75763349 87.78808442 -69.7636135 85.45399574 -69.71875 83.12109375 C-69.05875 82.79109375 -68.39875 82.46109375 -67.71875 82.12109375 C-67.40164062 82.81074219 -67.08453125 83.50039062 -66.7578125 84.2109375 C-60.43617146 96.94153506 -50.48651143 104.09907434 -37.53125 109.43359375 C-19.75363092 113.77923397 3.00177762 113.04768339 20.28125 107.12109375 C21.69833854 106.71240781 23.11774155 106.31168294 24.5390625 105.91796875 C32.63831243 103.63111099 39.50254667 101.52958096 45.15625 94.93359375 C46.30143983 92.07061917 46.479107 90.04738191 46.65625 86.99609375 C46.84375 84.35546875 46.84375 84.35546875 47.28125 82.12109375 C49.65625 80.24609375 49.65625 80.24609375 52.28125 79.12109375 C54.77065504 76.65534102 55.26148301 75.30324759 55.64453125 71.7734375 C55.62777344 70.54753906 55.61101562 69.32164063 55.59375 68.05859375 C55.58988281 66.83011719 55.58601562 65.60164063 55.58203125 64.3359375 C55.52378222 60.9705471 55.52378222 60.9705471 53.28125 58.12109375 C51.33462069 57.65365406 51.33462069 57.65365406 49.06616211 57.70458984 C47.75856178 57.67974014 47.75856178 57.67974014 46.42454529 57.65438843 C45.47878128 57.65113556 44.53301727 57.64788269 43.55859375 57.64453125 C42.58394669 57.62895172 41.60929962 57.61337219 40.6051178 57.59732056 C37.47633769 57.54967741 34.34777891 57.52203886 31.21875 57.49609375 C28.11487728 57.45943858 25.01112506 57.41855628 21.90736389 57.3734436 C19.97517402 57.34653617 18.04289831 57.32505046 16.11058044 57.30990601 C9.0640109 57.22900085 2.11755138 56.94569382 -4.71875 55.12109375 C-4.71875 54.46109375 -4.71875 53.80109375 -4.71875 53.12109375 C-18.36389775 53.34472346 -18.36389775 53.34472346 -29.78125 59.87109375 C-32.10371283 63.76683785 -32.43602893 65.65802484 -31.71875 70.12109375 C-29.05421943 75.6721991 -25.11613689 78.48013554 -19.71875 81.12109375 C-16.47679633 82.06354566 -13.25409271 82.53255676 -9.90625 82.93359375 C-9.03129883 83.0519458 -8.15634766 83.17029785 -7.25488281 83.29223633 C-1.06878678 84.08298776 5.0445677 84.50731031 11.28125 84.12109375 C11.28125 85.11109375 11.28125 86.10109375 11.28125 87.12109375 C7.33447029 87.22116813 3.38819795 87.29311891 -0.55957031 87.34082031 C-2.55039478 87.37044852 -4.54086708 87.42131701 -6.53125 87.47265625 C-15.90811603 87.56737207 -22.87675452 86.34909074 -30.71875 81.12109375 C-34.40621315 77.4336306 -35.04872642 74.28222556 -35.15625 69.12109375 C-34.92541733 56.20889123 -27.39557861 44.89007739 -20.28125 34.49609375 C-18.5355445 32.31643661 -18.5355445 32.31643661 -18.71875 30.12109375 C-12.52999446 31.74971363 -7.41459075 34.2772366 -1.96875 37.55859375 C-1.33122803 37.94200928 -0.69370605 38.3254248 -0.03686523 38.72045898 C2.82175104 40.47813939 5.33660635 42.1701596 7.859375 44.40625 C11.01632444 46.64157388 12.46902708 46.68309222 16.28125 46.12109375 C19.00948507 45.14702747 21.56924677 43.91960894 24.15625 42.62109375 C24.84460938 42.28722656 25.53296875 41.95335937 26.2421875 41.609375 C27.92698446 40.79037648 29.60485619 39.95715784 31.28125 39.12109375 C26.31684297 24.81643637 9.24945063 10.1182033 -3.71875 3.12109375 C-15.91129592 -2.27736683 -32.39205675 -3.2055995 -42.71875 7.12109375 Z " fill="#E2E4E6" transform="translate(193.71875,8.87890625)"/>
<path d="M0 0 C4.13909213 2.14319539 6.4063468 4.58599109 8.20703125 8.875 C9.01982233 12.07811754 9.03510513 14.12149932 8.625 17.375 C7.98405422 24.04701394 7.84388745 30.67327419 7.8125 37.375 C7.79977051 38.40931152 7.78704102 39.44362305 7.77392578 40.50927734 C7.76575054 46.11658747 8.37715561 50.60309889 10 56 C10.3023787 59.08766498 10.32520714 62.14945797 10.3125 65.25 C10.32861328 66.05179687 10.34472656 66.85359375 10.36132812 67.6796875 C10.36229492 68.83597656 10.36229492 68.83597656 10.36328125 70.015625 C10.36626221 70.70946289 10.36924316 71.40330078 10.37231445 72.11816406 C9.89321769 74.53972332 8.78092283 75.35493241 7 77 C6.60076238 79.1453229 6.60076238 79.1453229 6.75 81.4375 C6.76546875 82.19933594 6.7809375 82.96117188 6.796875 83.74609375 C6.99399859 85.93340747 7.44961437 87.87889846 8 90 C8.48167921 94.97735185 8.60907512 96.99121934 6 101.3125 C2.2871016 105.1836185 -2.4444247 106.93465859 -7.75 107.0703125 C-8.4925 107.04710938 -9.235 107.02390625 -10 107 C-11.65715416 87.26211033 -11.65715416 87.26211033 -11 80 C-8.43342872 77.43342872 -7.12712631 77.65999328 -3.5625 77.4375 C-0.42036099 77.23248694 1.99894319 77.00035227 5 76 C5.55169099 70.2372839 5.55169099 70.2372839 3.125 65.1875 C-0.46431459 62.67497978 -3.66615055 61.69440453 -7.890625 60.67578125 C-8.93476562 60.34126953 -8.93476562 60.34126953 -10 60 C-11.19420058 57.61159884 -11.11464081 56.17034402 -11.09765625 53.50610352 C-11.09435303 52.57496231 -11.0910498 51.64382111 -11.08764648 50.6844635 C-11.07519897 49.17196266 -11.07519897 49.17196266 -11.0625 47.62890625 C-11.05871338 46.59563705 -11.05492676 45.56236786 -11.05102539 44.49778748 C-11.03462551 40.06415049 -11.00650858 35.63060444 -10.97949219 31.19702148 C-10.9614563 27.96598737 -10.94932992 24.73496807 -10.9375 21.50390625 C-10.92920166 20.49759659 -10.92090332 19.49128693 -10.91235352 18.45448303 C-10.90905029 17.52018967 -10.90574707 16.5858963 -10.90234375 15.62329102 C-10.89448853 14.38990746 -10.89448853 14.38990746 -10.88647461 13.13160706 C-10.915525 10.81121392 -10.915525 10.81121392 -12 8 C-14.50447516 6.78130071 -14.50447516 6.78130071 -17 6 C-17 5.01 -17 4.02 -17 3 C-11.59236822 -0.50765305 -6.25934221 -1.11579579 0 0 Z " fill="#66BDEB" transform="translate(115,15)"/>
<path d="M0 0 C0.90105469 0.00902344 1.80210937 0.01804688 2.73046875 0.02734375 C3.41753906 0.03894531 4.10460937 0.05054688 4.8125 0.0625 C3.3451428 4.14100052 1.33961533 7.54611017 -1 11.1875 C-7.75091985 21.91855401 -13.54340869 33.06299447 -12.1875 46.0625 C-10.42179089 51.26153237 -7.62596259 53.90436316 -3.1875 57.0625 C2.85078934 60.02867722 8.09739195 61.13939356 14.76953125 61.37890625 C16.43725586 61.44174805 16.43725586 61.44174805 18.13867188 61.50585938 C19.8644043 61.56483398 19.8644043 61.56483398 21.625 61.625 C22.79482422 61.66818359 23.96464844 61.71136719 25.16992188 61.75585938 C28.05067031 61.86168279 30.93150123 61.96376825 33.8125 62.0625 C29.76481597 66.42043025 25.33358105 67.85769481 19.51269531 68.33056641 C15.64977337 68.43017891 11.80135461 68.4222123 7.9375 68.375 C6.62652344 68.37822266 5.31554687 68.38144531 3.96484375 68.38476562 C-6.88143119 68.32493161 -18.35221364 67.99007515 -27 60.6875 C-31.17557596 55.67680885 -31.52523271 51.43602969 -31.1875 45.0625 C-28.73921577 29.72850927 -22.20232286 13.23873468 -10.5 2.625 C-6.92729802 0.21101217 -4.20422781 -0.05460036 0 0 Z " fill="#66BDEB" transform="translate(169.1875,36.9375)"/>
<path d="M0 0 C2 2 2 2 2.08203125 4.1875 C1.05535684 14.90062431 -0.3516995 25.76927809 -3.05859375 36.203125 C-3.84130503 39.35995224 -4.35587909 42.27054914 -4.625 45.5 C-4.75 47 -4.875 48.5 -5 50 C-4.40461426 50.01981934 -3.80922852 50.03963867 -3.19580078 50.06005859 C-0.50507847 50.15516126 2.18485148 50.26489842 4.875 50.375 C5.81214844 50.4059375 6.74929687 50.436875 7.71484375 50.46875 C8.61074219 50.50742188 9.50664063 50.54609375 10.4296875 50.5859375 C11.25710449 50.6173584 12.08452148 50.6487793 12.93701172 50.68115234 C15 51 15 51 17 53 C14.125 57.875 14.125 57.875 13 59 C4.87459724 59.74915061 -3.14862678 58.74128161 -11.1875 57.625 C-12.12045898 57.49899414 -13.05341797 57.37298828 -14.01464844 57.24316406 C-15.32804199 57.04932129 -15.32804199 57.04932129 -16.66796875 56.8515625 C-17.45453857 56.73635254 -18.2411084 56.62114258 -19.05151367 56.50244141 C-21 56 -21 56 -23 54 C-23.79116739 45.6037361 -21.1802252 37.71694666 -19.1328125 29.64257812 C-16.16931572 18.73121859 -16.16931572 18.73121859 -18.5625 8.125 C-19.036875 7.42375 -19.51125 6.7225 -20 6 C-19 3 -19 3 -17.28515625 2.05078125 C-11.57015991 0.15247842 -6.02804176 -0.87742763 0 0 Z " fill="#66BDEB" transform="translate(71,16)"/>
<path d="M0 0 C2.62424404 1.1749119 4.6398111 1.29594455 7.51043701 1.39163208 C9.10163361 1.45146774 9.10163361 1.45146774 10.72497559 1.51251221 C11.86364075 1.54593719 13.00230591 1.57936218 14.17547607 1.61380005 C15.34620667 1.65536224 16.51693726 1.69692444 17.72314453 1.73974609 C21.46222508 1.87049386 25.20158599 1.98839273 28.94110107 2.10598755 C31.47628629 2.19238123 34.01144318 2.27961057 36.54656982 2.3677063 C42.76111739 2.58183108 48.97594371 2.78540835 55.19110107 2.98098755 C56.79749387 7.57436776 57.80354009 11.08147541 57.19110107 15.98098755 C55.03548463 19.09465575 53.22695664 21.37673847 49.94110107 23.29348755 C47.7491335 25.40717056 47.90931234 26.31787938 47.69110107 29.29348755 C47.33161095 33.91443346 46.39294789 36.45895605 43.19110107 39.98098755 C37.35306123 43.87707889 31.14515156 46.28511403 24.44110107 48.23098755 C23.14317627 48.6160144 23.14317627 48.6160144 21.81903076 49.00881958 C14.92607442 50.96451344 8.37943291 51.95475276 1.19110107 51.98098755 C1.19110107 51.65098755 1.19110107 51.32098755 1.19110107 50.98098755 C7.09442139 49.50515747 12.9977417 48.02932739 18.90106201 46.55349731 C19.6567749 46.36456909 20.41248779 46.17564087 21.19110107 45.98098755 C22.29179932 45.76817139 22.29179932 45.76817139 23.41473389 45.55105591 C24.00093506 45.36293335 24.58713623 45.17481079 25.19110107 44.98098755 C27.99267901 39.52528315 27.82100492 32.99991974 28.19110107 26.98098755 C29.83078857 27.07380005 29.83078857 27.07380005 31.50360107 27.16848755 C35.04619837 27.32013361 35.04619837 27.32013361 36.93328857 25.73880005 C38.56482402 23.45870393 38.4061412 22.41049618 38.00360107 19.66848755 C37.90692139 18.92985474 37.8102417 18.19122192 37.71063232 17.4302063 C37.09449339 14.52555134 36.14589896 11.79044961 35.19110107 8.98098755 C34.53599548 8.97512131 33.88088989 8.96925507 33.20593262 8.96321106 C26.39259739 8.89931805 19.5797363 8.81490871 12.76678467 8.71853638 C10.22355395 8.68526501 7.680249 8.65724006 5.13690186 8.634552 C1.48277119 8.60104749 -2.1706778 8.54873194 -5.82452393 8.4927063 C-6.96318909 8.48631638 -8.10185425 8.47992645 -9.27502441 8.4733429 C-10.33582214 8.45354874 -11.39661987 8.43375458 -12.48956299 8.4133606 C-13.88854828 8.39670601 -13.88854828 8.39670601 -15.3157959 8.37971497 C-18.30452009 7.90172177 -19.7073295 7.15242084 -21.80889893 4.98098755 C-21.80889893 3.66098755 -21.80889893 2.34098755 -21.80889893 0.98098755 C-19.41519268 0.44804918 -17.01981454 -0.07059415 -14.62139893 -0.58151245 C-13.94786377 -0.73297729 -13.27432861 -0.88444214 -12.5803833 -1.04049683 C-7.86633311 -2.0292976 -4.27410664 -2.4077453 0 0 Z " fill="#65BCEA" transform="translate(190.80889892578125,66.01901245117188)"/>
<path d="M0 0 C12.08274418 7.88388047 22.60444816 18.43090988 30.90234375 30.22265625 C27.5871425 33.02088304 24.20453314 34.41084617 20.15234375 35.91015625 C18.981875 36.34714844 17.81140625 36.78414062 16.60546875 37.234375 C15.7134375 37.56050781 14.82140625 37.88664062 13.90234375 38.22265625 C10.69630213 35.21699223 7.96834327 32.07491488 5.27734375 28.59765625 C-5.33791911 15.26916388 -17.19222004 5.5299844 -33.09765625 -0.77734375 C-22.87459526 -9.42762613 -10.59177985 -6.07725074 0 0 Z " fill="#66BDEB" transform="translate(192.09765625,15.77734375)"/>
<path d="M0 0 C14.4 0 14.4 0 19 2 C21.04853018 5.0788153 21.2566563 7.63483158 21.265625 11.28125 C21.26949219 12.79138672 21.26949219 12.79138672 21.2734375 14.33203125 C21.26570313 15.37746094 21.25796875 16.42289063 21.25 17.5 C21.25773437 18.54542969 21.26546875 19.59085938 21.2734375 20.66796875 C21.27085937 21.67472656 21.26828125 22.68148437 21.265625 23.71875 C21.26336914 24.63591797 21.26111328 25.55308594 21.25878906 26.49804688 C20.9849254 29.14574008 20.4288654 30.76668968 19 33 C13.32745403 35.83627298 6.3420992 34 0 34 C0 22.78 0 11.56 0 0 Z M10 7 C10 13.6 10 20.2 10 27 C10.33 27 10.66 27 11 27 C11 20.4 11 13.8 11 7 C10.67 7 10.34 7 10 7 Z " fill="#FFFFFF" transform="translate(335,33)"/>
<path d="M0 0 C13.77777778 0 13.77777778 0 18 2 C20 4 20 4 20.1953125 6.49609375 C20.17210937 7.46675781 20.14890625 8.43742187 20.125 9.4375 C20.10695313 10.40558594 20.08890625 11.37367187 20.0703125 12.37109375 C20.04710937 13.23863281 20.02390625 14.10617188 20 15 C20 15.99 20 16.98 20 18 C20 23.33333333 20 28.66666667 20 34 C13.4 34 6.8 34 0 34 C0 22.78 0 11.56 0 0 Z M10 7 C10 8.98 10 10.96 10 13 C10.33 13 10.66 13 11 13 C11 11.02 11 9.04 11 7 C10.67 7 10.34 7 10 7 Z " fill="#FFFFFF" transform="translate(290,33)"/>
<path d="M0 0 C3.55680172 2.10504591 4.69468936 3.08406808 6 7 C6.25424949 10.45394084 6.23128473 13.91267423 6.25 17.375 C6.270625 18.32117188 6.29125 19.26734375 6.3125 20.2421875 C6.36144686 28.95472939 6.36144686 28.95472939 3 33 C-0.42176689 35.56632517 -3.84640421 35.36435051 -8 35 C-11.82532275 33.29985655 -13.46486013 31.85062832 -15 28 C-15.25878906 25.58984375 -15.25878906 25.58984375 -15.265625 22.9375 C-15.26820313 21.97585937 -15.27078125 21.01421875 -15.2734375 20.0234375 C-15.26570313 19.02570312 -15.25796875 18.02796875 -15.25 17 C-15.25773437 16.00226562 -15.26546875 15.00453125 -15.2734375 13.9765625 C-15.27085937 13.01492187 -15.26828125 12.05328125 -15.265625 11.0625 C-15.26336914 10.18722656 -15.26111328 9.31195313 -15.25878906 8.41015625 C-14.9767577 5.78353966 -14.43181952 4.21161781 -13 2 C-8.76032983 -0.82644678 -4.97913141 -0.65911947 0 0 Z M-5 6 C-5 13.26 -5 20.52 -5 28 C-4.67 28 -4.34 28 -4 28 C-4 20.74 -4 13.48 -4 6 C-4.33 6 -4.66 6 -5 6 Z " fill="#FFFFFF" transform="translate(437,33)"/>
<path d="M0 0 C2.57637471 1.88515223 3.59667428 3.19334857 5 6 C5.26752525 9.59821462 5.23158496 13.2054541 5.25 16.8125 C5.270625 17.81087891 5.29125 18.80925781 5.3125 19.83789062 C5.3614857 29.02883307 5.3614857 29.02883307 2 33 C-1.42765252 35.57073939 -4.83971296 35.43037452 -9 35 C-14.68421053 31.94736842 -14.68421053 31.94736842 -16 28 C-16.25424949 24.54605916 -16.23128473 21.08732577 -16.25 17.625 C-16.270625 16.67882812 -16.29125 15.73265625 -16.3125 14.7578125 C-16.36201971 5.9433035 -16.36201971 5.9433035 -13 2 C-8.77845244 -0.81436504 -4.96024032 -0.68304949 0 0 Z M-6 6 C-6 13.26 -6 20.52 -6 28 C-5.67 28 -5.34 28 -5 28 C-5 20.74 -5 13.48 -5 6 C-5.33 6 -5.66 6 -6 6 Z " fill="#FFFFFF" transform="translate(328,33)"/>
<path d="M0 0 C2.97 0 5.94 0 9 0 C7.35 1.65 5.7 3.3 4 5 C5.32 5.33 6.64 5.66 8 6 C9.65 17.22 11.3 28.44 13 40 C9.7 40 6.4 40 3 40 C3 38.02 3 36.04 3 34 C2.01 34 1.02 34 0 34 C0 35.98 0 37.96 0 40 C-3.3 40 -6.6 40 -10 40 C-9.52242176 35.81231726 -9.04265384 31.62488814 -8.5625 27.4375 C-8.36043945 25.66536133 -8.36043945 25.66536133 -8.15429688 23.85742188 C-7.89188222 21.57249431 -7.62526908 19.28804414 -7.35400391 17.00415039 C-7.14571322 15.23655252 -6.94617798 13.46781642 -6.76708984 11.69702148 C-6.23411355 6.93955276 -4.59486253 5.14550471 -1 2 C-0.67 1.34 -0.34 0.68 0 0 Z M1 21 C1 22.98 1 24.96 1 27 C1.33 27 1.66 27 2 27 C2 25.02 2 23.04 2 21 C1.67 21 1.34 21 1 21 Z " fill="#FFFFFF" transform="translate(320,71)"/>
<path d="M0 0 C2.97 0 5.94 0 9 0 C9.33 8.91 9.66 17.82 10 27 C10.33 18.09 10.66 9.18 11 0 C13.97 0 16.94 0 20 0 C20.09907258 4.19915307 20.17156173 8.39768252 20.21972656 12.59765625 C20.23980982 14.02551121 20.26708252 15.45328425 20.30175781 16.88085938 C20.35042669 18.93640368 20.37299967 20.99085855 20.390625 23.046875 C20.41157227 24.28276367 20.43251953 25.51865234 20.45410156 26.79199219 C19.91756095 30.58239198 19.00059595 31.71014461 16 34 C11.55419653 35.47924006 7.85787298 35.32170237 3.5 33.6875 C1 32 1 32 0 30 C-0.08573394 27.74879258 -0.10712188 25.49500697 -0.09765625 23.2421875 C-0.0962413 22.57913605 -0.09482635 21.91608459 -0.09336853 21.23294067 C-0.08776754 19.11358137 -0.075215 16.99432741 -0.0625 14.875 C-0.05748512 13.43880361 -0.05292219 12.00260556 -0.04882812 10.56640625 C-0.03779782 7.04423655 -0.02053259 3.52212855 0 0 Z " fill="#FFFFFF" transform="translate(358,33)"/>
<path d="M0 0 C0.825 -0.01289062 1.65 -0.02578125 2.5 -0.0390625 C6.425191 1.00356636 7.68804683 2.24849194 10 5.625 C10.71459809 9.82564706 10.65201127 13.93692422 10.5625 18.1875 C10.57345703 19.32380859 10.58441406 20.46011719 10.59570312 21.63085938 C10.52172683 29.99018093 10.52172683 29.99018093 8.10107422 32.93554688 C4.6970624 35.67267932 1.2721829 35.83098025 -3 35.625 C-6.670261 34.06318681 -7.7727373 32.96589404 -10 29.625 C-10.49013484 25.6828318 -10.41651039 21.71936806 -10.4375 17.75 C-10.47037109 16.66074219 -10.50324219 15.57148437 -10.53710938 14.44921875 C-10.59073422 6.48349206 -10.59073422 6.48349206 -7.78515625 2.40625 C-4.87065159 0.54227507 -3.42193522 -0.05346774 0 0 Z M-1 7.625 C-1 14.555 -1 21.485 -1 28.625 C-0.34 28.625 0.32 28.625 1 28.625 C1 21.695 1 14.765 1 7.625 C0.34 7.625 -0.32 7.625 -1 7.625 Z " fill="#FFFFFF" transform="translate(431,76.375)"/>
<path d="M0 0 C3.125 1.8125 3.125 1.8125 5 5 C5.39044639 8.70663772 5.29245966 12.28901188 5 16 C2.03 16 -0.94 16 -4 16 C-4.33 13.03 -4.66 10.06 -5 7 C-5.33 13.93 -5.66 20.86 -6 28 C-5.34 28 -4.68 28 -4 28 C-4 25.36 -4 22.72 -4 20 C-1.03 20 1.94 20 5 20 C5.62619962 29.1146833 5.62619962 29.1146833 3.1875 32.5625 C-0.84829524 35.21459402 -4.26324045 35.32667307 -9 35 C-11.97460411 33.74405604 -13.51077479 32.86000642 -15.11328125 30.04296875 C-16.42668971 25.53572122 -16.36857445 21.1713763 -16.375 16.5 C-16.39949219 15.56285156 -16.42398437 14.62570313 -16.44921875 13.66015625 C-16.46792674 9.26377901 -16.44173443 6.71986352 -14.1015625 2.90625 C-9.90324357 -0.90189059 -5.44865176 -0.70994992 0 0 Z " fill="#FFFFFF" transform="translate(396,33)"/>
<path d="M0 0 C3.125 1.25 3.125 1.25 5 4 C5.40235995 8.03432907 5.28580572 11.96061249 5 16 C2.03 16 -0.94 16 -4 16 C-4 13.03 -4 10.06 -4 7 C-4.66 7 -5.32 7 -6 7 C-6 13.93 -6 20.86 -6 28 C-5.34 28 -4.68 28 -4 28 C-4 25.36 -4 22.72 -4 20 C-1.03 20 1.94 20 5 20 C5.61206387 28.90892963 5.61206387 28.90892963 3.5625 32.5625 C-0.21375546 34.68088721 -3.6922354 35.17917912 -8 35 C-11.4375 33.9375 -11.4375 33.9375 -14 32 C-16.24621333 26.98626786 -16.30299692 22.32110403 -16.25 16.9375 C-16.25773437 16.14794922 -16.26546875 15.35839844 -16.2734375 14.54492188 C-16.25924598 10.31229956 -16.17632604 6.75347371 -14 3 C-9.87198709 -1.05699333 -5.46459149 -0.73273198 0 0 Z " fill="#FFFFFF" transform="translate(411,77)"/>
<path d="M0 0 C3.75408052 1.50816104 3.75408052 1.50816104 5 4 C5.04022391 6.3329866 5.04320247 8.66706666 5 11 C2.36 11.33 -0.28 11.66 -3 12 C-2.05125 12.61875 -1.1025 13.2375 -0.125 13.875 C4.82063385 17.23803102 4.82063385 17.23803102 5.51953125 20.20703125 C6.30824064 27.22128679 6.30824064 27.22128679 4.8125 31 C1.82386892 34.29779981 0.01810564 34.90744494 -4.4375 35.3125 C-8.32945449 34.97110048 -10.08175794 34.58472868 -13 32 C-14.49476439 28.08514087 -15 25.19882528 -15 21 C-13.02 20.67 -11.04 20.34 -9 20 C-9.804375 19.21625 -10.60875 18.4325 -11.4375 17.625 C-14.63281 14.35175561 -14.92411864 13.77146047 -15.375 9.1875 C-15.30270863 5.88016988 -14.96995307 4.95192491 -13.125 2 C-8.80153483 -0.76701771 -5.01333127 -0.77441703 0 0 Z M-5 6 C-5.33 7.32 -5.66 8.64 -6 10 C-5.01 10.495 -5.01 10.495 -4 11 C-4 9.35 -4 7.7 -4 6 C-4.33 6 -4.66 6 -5 6 Z M-6 22 C-6 23.65 -6 25.3 -6 27 C-5.01 27.495 -5.01 27.495 -4 28 C-3.67 27.01 -3.34 26.02 -3 25 C-3.99 24.01 -4.98 23.02 -6 22 Z " fill="#FFFFFF" transform="translate(459,33)"/>
<path d="M0 0 C2.6875 1.5625 2.6875 1.5625 4 4 C4.25 7.75 4.25 7.75 4 11 C1.69 11.33 -0.62 11.66 -3 12 C-2.50628906 12.39832031 -2.01257813 12.79664062 -1.50390625 13.20703125 C-0.86324219 13.73683594 -0.22257812 14.26664063 0.4375 14.8125 C1.07558594 15.33457031 1.71367187 15.85664062 2.37109375 16.39453125 C5.05287977 19.03773042 5.01063732 21.22338365 5.1875 24.9375 C5.12931568 28.10854522 5.05981655 30.44975093 3 33 C-0.86965718 35.46250911 -4.52750981 35.18024853 -8.90625 34.5234375 C-11 34 -11 34 -13.5625 32.5 C-15.71529227 28.75601344 -15.32458364 25.21958726 -15 21 C-13.02 20.67 -11.04 20.34 -9 20 C-9.969375 19.34 -10.93875 18.68 -11.9375 18 C-14.53054523 15.84219404 -15.4993358 14.34621137 -16 11 C-16 7.25309195 -15.87829034 5.19309358 -14 2 C-9.54282383 -0.97145078 -5.22511431 -0.61794017 0 0 Z M-6 6 C-6.33 6.99 -6.66 7.98 -7 9 C-6.34 9.66 -5.68 10.32 -5 11 C-5 9.35 -5 7.7 -5 6 C-5.33 6 -5.66 6 -6 6 Z M-6 22 C-6 23.98 -6 25.96 -6 28 C-5.34 27.67 -4.68 27.34 -4 27 C-4.33 25.35 -4.66 23.7 -5 22 C-5.33 22 -5.66 22 -6 22 Z " fill="#FFFFFF" transform="translate(461,77)"/>
<path d="M0 0 C2.59186425 1.42817009 3.75556607 2.18051958 4.609375 5.04296875 C4.73958333 7.02864583 4.86979167 9.01432292 5 11 C2.36 11.33 -0.28 11.66 -3 12 C-2.50628906 12.33773437 -2.01257813 12.67546875 -1.50390625 13.0234375 C-0.86324219 13.46945313 -0.22257812 13.91546875 0.4375 14.375 C1.07558594 14.81585938 1.71367187 15.25671875 2.37109375 15.7109375 C4 17 4 17 5 19 C5.14779962 20.9753988 5.22118966 22.95678924 5.25 24.9375 C5.27578125 25.99839844 5.3015625 27.05929688 5.328125 28.15234375 C5 31 5 31 3.671875 32.81640625 C-0.02247513 35.43179898 -3.62815141 35.3015068 -8 35 C-10.82275936 33.74544028 -12.46288541 32.71615278 -14.3125 30.25 C-15.26539512 27.13143415 -15.12452507 24.23765175 -15 21 C-13.02 20.67 -11.04 20.34 -9 20 C-9.804375 19.38125 -10.60875 18.7625 -11.4375 18.125 C-14.14170718 15.88248673 -14.87524006 15.17397061 -15.23828125 11.7578125 C-15.43258427 4.86516854 -15.43258427 4.86516854 -13.6875 1.375 C-9.36099295 -0.83856175 -4.75369898 -0.77597145 0 0 Z M-6 7 C-6 8.32 -6 9.64 -6 11 C-5.34 11 -4.68 11 -4 11 C-4 9.68 -4 8.36 -4 7 C-4.66 7 -5.32 7 -6 7 Z M-6 22 C-6 23.98 -6 25.96 -6 28 C-5.34 28 -4.68 28 -4 28 C-4 26.35 -4 24.7 -4 23 C-4.66 22.67 -5.32 22.34 -6 22 Z " fill="#FFFFFF" transform="translate(350,77)"/>
<path d="M0 0 C12 0 12 0 17 2 C19.27947698 5.41921547 19.32513105 6.90310177 19.375 10.9375 C19.40335937 11.97777344 19.43171875 13.01804687 19.4609375 14.08984375 C19 17 19 17 17.3515625 19.37890625 C15 21 15 21 9 21 C9 25.29 9 29.58 9 34 C6.03 34 3.06 34 0 34 C0 22.78 0 11.56 0 0 Z M9 7 C9 9.31 9 11.62 9 14 C9.66 13.67 10.32 13.34 11 13 C11 11.35 11 9.7 11 8 C10.34 7.67 9.68 7.34 9 7 Z " fill="#FFFFFF" transform="translate(270,77)"/>
<path d="M0 0 C12 0 12 0 17 2 C19.27947698 5.41921547 19.32513105 6.90310177 19.375 10.9375 C19.40335937 11.97777344 19.43171875 13.01804687 19.4609375 14.08984375 C19 17 19 17 17.3515625 19.37890625 C15 21 15 21 9 21 C9 25.29 9 29.58 9 34 C6.03 34 3.06 34 0 34 C0 22.78 0 11.56 0 0 Z M9 7 C9 9.31 9 11.62 9 14 C9.66 13.67 10.32 13.34 11 13 C11 11.35 11 9.7 11 8 C10.34 7.67 9.68 7.34 9 7 Z " fill="#FFFFFF" transform="translate(270,33)"/>
<path d="M0 0 C6.6 0 13.2 0 20 0 C20 2.64 20 5.28 20 8 C18.35 8 16.7 8 15 8 C15 16.58 15 25.16 15 34 C11.7 34 8.4 34 5 34 C5 25.42 5 16.84 5 8 C3.35 8 1.7 8 0 8 C0 5.36 0 2.72 0 0 Z " fill="#FFFFFF" transform="translate(358,77)"/>
<path d="M0 0 C6.27 0 12.54 0 19 0 C19 2.64 19 5.28 19 8 C17.35 8 15.7 8 14 8 C14 16.58 14 25.16 14 34 C11.03 34 8.06 34 5 34 C5 25.42 5 16.84 5 8 C3.35 8 1.7 8 0 8 C0 5.36 0 2.72 0 0 Z " fill="#FFFFFF" transform="translate(402,33)"/>
<path d="M0 0 C2.97 0 5.94 0 9 0 C9 8.91 9 17.82 9 27 C10.65 27 12.3 27 14 27 C14 29.31 14 31.62 14 34 C9.38 34 4.76 34 0 34 C0 22.78 0 11.56 0 0 Z " fill="#FFFFFF" transform="translate(293,77)"/>
<path d="M0 0 C3.3 0 6.6 0 10 0 C10 11.22 10 22.44 10 34 C6.7 34 3.4 34 0 34 C0 22.78 0 11.56 0 0 Z " fill="#FFFFFF" transform="translate(381,77)"/>
<path d="M0 0 C0 0.66 0 1.32 0 2 C12.99364862 4.70381736 26.12674193 4.37745207 39.3371582 4.45629883 C42.36437868 4.47781543 45.39096516 4.51717035 48.41796875 4.55859375 C49.81779243 4.55876747 49.81779243 4.55876747 51.24589539 4.5589447 C52.10471817 4.57228348 52.96354095 4.58562225 53.84838867 4.59936523 C54.98204109 4.60697121 54.98204109 4.60697121 56.13859558 4.61473083 C58 5 58 5 60 8 C60.62481207 13.29446015 61.24813751 19.27329959 58.984375 24.21875 C56.8957348 26.78551266 55.13587714 27.95470762 52 29 C51.98582031 29.64066406 51.97164063 30.28132813 51.95703125 30.94140625 C51.60719605 37.28571486 50.617108 41.51091308 46 46 C40.58732105 49.39943589 34.5069356 51.32258962 28.4375 53.1875 C27.62603516 53.44724609 26.81457031 53.70699219 25.97851562 53.97460938 C21.33408632 55.42529068 16.86820737 56.68046515 12 57 C11.34 56.34 10.68 55.68 10 55 C11.01578125 54.75765625 12.0315625 54.5153125 13.078125 54.265625 C32.25775875 50.83442506 32.25775875 50.83442506 47.203125 40.11328125 C48.0709685 37.81179433 48.13369013 36.13377046 48.125 33.6875 C48.47575328 29.43637023 49.77418244 27.80616689 53 25.0625 C53.721875 24.51722656 54.44375 23.97195312 55.1875 23.41015625 C57.12297256 22.11348898 57.12297256 22.11348898 58 20 C58.17271252 15.50947449 57.78522503 11.41221682 57 7 C56.14059814 7.00523682 55.28119629 7.01047363 54.39575195 7.01586914 C25.48640293 7.16831815 25.48640293 7.16831815 12.8125 6.6875 C11.97823486 6.66502197 11.14396973 6.64254395 10.28442383 6.61938477 C6.85775635 6.4608659 4.47219755 6.30874455 1.5625 4.40625 C-2.50938271 2.17168022 -6.33430087 3.18802331 -10.8125 3.8125 C-11.69615234 3.92142578 -12.57980469 4.03035156 -13.49023438 4.14257812 C-15.66267087 4.41266482 -17.83168571 4.69887174 -20 5 C-20.33 5.99 -20.66 6.98 -21 8 C-21.66 8 -22.32 8 -23 8 C-23.99 8.66 -24.98 9.32 -26 10 C-24.80460453 6.65289269 -22.98026011 4.75762517 -19.96875 2.8828125 C-13.80163956 0.11740187 -6.67387991 -0.29661688 0 0 Z " fill="#2372BA" transform="translate(189,62)"/>
<path d="M0 0 C5.56818182 0.56818182 5.56818182 0.56818182 7 2 C7.80935238 9.25304245 6.24579022 14.55110787 2.25 20.6875 C-0.64639356 23.66434893 -3.23690342 25.22108162 -7 27 C-7.99 26.67 -8.98 26.34 -10 26 C-9.54625 25.38125 -9.0925 24.7625 -8.625 24.125 C-6.79435761 20.60453387 -6.22705936 17.51396378 -5.53125 13.640625 C-3.48888889 3.48888889 -3.48888889 3.48888889 0 0 Z " fill="#64BBEA" transform="translate(39,99)"/>
<path d="M0 0 C12.91132444 7.80194354 25.20141566 20.06518791 33 33 C33 33.66 33 34.32 33 35 C27.72 37.31 22.44 39.62 17 42 C17 41.01 17 40.02 17 39 C22.94 36.525 22.94 36.525 29 34 C29 27.97797585 18.87836033 19.65199551 14.8125 15.375 C5.82935836 6.58084451 -5.45720946 -1.66288822 -18.375 -2.4375 C-23.94246404 -2.26998338 -28.91880314 -0.12745438 -34 2 C-34.33 1.01 -34.66 0.02 -35 -1 C-21.563292 -6.09276242 -13.25054947 -6.20207437 0 0 Z " fill="#2373BB" transform="translate(192,13)"/>
<path d="M0 0 C1.67578125 1.83984375 1.67578125 1.83984375 1.98828125 4.421875 C0.53976785 19.39588224 -1.95712357 34.42842966 -6.32421875 48.83984375 C0.93578125 49.16984375 8.19578125 49.49984375 15.67578125 49.83984375 C15.67578125 50.16984375 15.67578125 50.49984375 15.67578125 50.83984375 C8.99604243 52.11217495 -1.17060892 53.91664866 -7.32421875 50.83984375 C-7.57058059 43.95357407 -6.94773618 37.7409397 -5.44921875 31.02734375 C-5.07993086 29.2803906 -4.71274451 27.53299189 -4.34765625 25.78515625 C-4.17073242 24.9437207 -3.99380859 24.10228516 -3.81152344 23.23535156 C-1.71934261 13.1175432 -1.71934261 13.1175432 -1.32421875 2.83984375 C-2.92682013 1.23724237 -4.6092046 1.63086253 -6.82421875 1.58984375 C-11.44215058 1.61634551 -15.13387974 2.50569996 -19.4140625 4.18359375 C-21.32421875 4.83984375 -21.32421875 4.83984375 -24.32421875 4.83984375 C-19.77814031 -1.9792739 -7.14702178 -3.56750499 0 0 Z M-26.32421875 4.83984375 C-25.66421875 5.16984375 -25.00421875 5.49984375 -24.32421875 5.83984375 C-25.97421875 7.15984375 -27.62421875 8.47984375 -29.32421875 9.83984375 C-27.44921875 5.96484375 -27.44921875 5.96484375 -26.32421875 4.83984375 Z " fill="#2575BB" transform="translate(73.32421875,15.16015625)"/>
<path d="M0 0 C0.66 0.66 1.32 1.32 2 2 C1.41992188 2.85980469 0.83984375 3.71960937 0.2421875 4.60546875 C-8.20628101 17.3198342 -15.30249546 29.23397285 -14 45 C-11.7444126 50.74149519 -7.6925066 52.53235408 -2.33984375 55.01953125 C1.67415307 56.70152324 4.86563401 57.17398797 9.19921875 57.31640625 C11.01196289 57.37924805 11.01196289 57.37924805 12.86132812 57.44335938 C14.7552832 57.50233398 14.7552832 57.50233398 16.6875 57.5625 C18.59885742 57.62727539 18.59885742 57.62727539 20.54882812 57.69335938 C23.69910852 57.7995486 26.84946839 57.90159533 30 58 C30 58.33 30 58.66 30 59 C26.04301334 59.25822164 22.08474563 59.47616526 18.125 59.6875 C17.01640625 59.76033203 15.9078125 59.83316406 14.765625 59.90820312 C5.12227314 60.39037072 -3.30692856 59.26180234 -11 53 C-15.93517966 47.90389057 -17.3746274 43.84929088 -17.2734375 36.8671875 C-15.98640575 23.37174031 -7.63317405 10.82065333 0 0 Z " fill="#2B78BD" transform="translate(173,39)"/>
<path d="M0 0 C4.44282857 2.27324728 7.04393248 5.46234225 9 10 C9.24050903 12.11346436 9.24050903 12.11346436 9.22705078 14.40136719 C9.22689972 15.2619574 9.22674866 16.12254761 9.22659302 17.00921631 C9.21627045 17.92914368 9.20594788 18.84907104 9.1953125 19.796875 C9.1924826 20.74564514 9.18965271 21.69441528 9.18673706 22.67193604 C9.17555448 25.69808639 9.1504533 28.7239393 9.125 31.75 C9.11496772 33.80338114 9.1058423 35.85676692 9.09765625 37.91015625 C9.07562141 42.94021854 9.04110462 47.97005886 9 53 C8.01 53.495 8.01 53.495 7 54 C6.00487445 51.01462335 5.87106334 49.0307936 5.8671875 45.9140625 C5.86549561 44.90657959 5.86380371 43.89909668 5.86206055 42.86108398 C5.86633057 41.79317627 5.87060059 40.72526855 5.875 39.625 C5.8747583 38.53968994 5.8745166 37.45437988 5.87426758 36.33618164 C5.89596054 30.65305187 6.08477364 25.08723175 6.6875 19.4375 C7.2793617 12.98706523 6.15950555 9.63189739 2 4.5625 C-3.5573356 1.66805437 -9.57703841 2.48990282 -15.5625 3.75 C-18.31205098 5.16002614 -19.0353158 6.1059474 -20 9 C-20.33 8.01 -20.66 7.02 -21 6 C-14.0160419 0.07881813 -9.42328217 -1.20034666 0 0 Z " fill="#1F71BA" transform="translate(116,13)"/>
<path d="M0 0 C0 0.66 0 1.32 0 2 C11.71947676 4.36473615 23.40212785 4.43639864 35.3125 4.625 C37.32488509 4.66326629 39.33725532 4.70232273 41.34960938 4.7421875 C46.23294941 4.83722998 51.11636565 4.92159668 56 5 C56 5.33 56 5.66 56 6 C48.68602159 6.07608962 41.37214534 6.12861664 34.05786133 6.16479492 C31.5698668 6.17987761 29.08189883 6.20034654 26.59399414 6.22631836 C23.01702312 6.26272337 19.44040378 6.27973184 15.86328125 6.29296875 C14.19583611 6.31619453 14.19583611 6.31619453 12.4947052 6.33988953 C11.45400375 6.34011612 10.41330231 6.34034271 9.34106445 6.34057617 C7.97205742 6.35056892 7.97205742 6.35056892 6.57539368 6.36076355 C3.47422598 5.92634908 1.60983965 4.68125018 -1 3 C-3.31989893 2.76695488 -3.31989893 2.76695488 -5.64453125 3.14453125 C-6.48564453 3.24443359 -7.32675781 3.34433594 -8.19335938 3.44726562 C-9.05767578 3.56779297 -9.92199219 3.68832031 -10.8125 3.8125 C-11.69615234 3.92142578 -12.57980469 4.03035156 -13.49023438 4.14257812 C-15.66267087 4.41266482 -17.83168571 4.69887174 -20 5 C-20.33 5.99 -20.66 6.98 -21 8 C-21.66 8 -22.32 8 -23 8 C-23.99 8.66 -24.98 9.32 -26 10 C-24.80460453 6.65289269 -22.98026011 4.75762517 -19.96875 2.8828125 C-13.80163956 0.11740187 -6.67387991 -0.29661688 0 0 Z " fill="#1D6FB8" transform="translate(189,62)"/>
<path d="M0 0 C0.33 0 0.66 0 1 0 C5.12098299 15.71124764 5.12098299 15.71124764 1.9375 22.1484375 C-1.44403308 26.50399913 -5.55812748 29.04950019 -11 30 C-13.49095335 29.93878565 -15.55211904 29.56097272 -18 29 C-17.67 28.34 -17.34 27.68 -17 27 C-15.14453125 26.7265625 -15.14453125 26.7265625 -12.8125 26.625 C-8.26353407 26.21935973 -5.56979002 24.96031368 -2 22 C1.16933623 17.24599565 0.20148743 12.13593665 -0.5625 6.6875 C-1 3 -1 3 0 0 Z " fill="#2B78BC" transform="translate(122,94)"/>
<path d="M0 0 C5.42577894 0.01656726 10.62801602 0.33754172 15.99609375 1.1328125 C13.71245997 3.41644628 12.24813907 3.8480974 9.18359375 4.7578125 C8.33152344 5.01820312 7.47945312 5.27859375 6.6015625 5.546875 C3.97630209 6.1372634 1.67688738 6.23869663 -1.00390625 6.1328125 C-1.66390625 4.4828125 -2.32390625 2.8328125 -3.00390625 1.1328125 C-2.00390625 0.1328125 -2.00390625 0.1328125 0 0 Z " fill="#63BAE9" transform="translate(47.00390625,91.8671875)"/>
<path d="M0 0 C1.32 0.33 2.64 0.66 4 1 C3.01 1 2.02 1 1 1 C1.12375 2.670625 1.12375 2.670625 1.25 4.375 C1.21175242 11.57829434 -1.49007582 17.80412439 -6.4375 23 C-9.08579825 25.42570421 -11.48111041 27.04030284 -15 28 C-15.33 27.34 -15.66 26.68 -16 26 C-15.38511719 25.62488281 -14.77023438 25.24976562 -14.13671875 24.86328125 C-13.32847656 24.35152344 -12.52023438 23.83976562 -11.6875 23.3125 C-10.88699219 22.81363281 -10.08648437 22.31476563 -9.26171875 21.80078125 C-4.77970295 18.23219872 -3.65249239 14.41445561 -2.9375 8.875 C-2.43732234 5.05459543 -2.17050561 3.25575841 0 0 Z " fill="#2E7DC1" transform="translate(48,99)"/>
<path d="M0 0 C1.8203125 1.5234375 1.8203125 1.5234375 3 3 C1.27828686 3 -0.44439047 2.97834198 -2.1640625 2.89453125 C-7.66253635 2.71124879 -11.9618657 3.33350815 -17.08984375 5.34375 C-19 6 -19 6 -22 6 C-17.56662582 -0.65006128 -7.41070872 -1.23916769 0 0 Z M-24 6 C-23.34 6.33 -22.68 6.66 -22 7 C-23.65 8.32 -25.3 9.64 -27 11 C-25.125 7.125 -25.125 7.125 -24 6 Z " fill="#2574BB" transform="translate(71,14)"/>
<path d="M0 0 C-3.75 4.875 -3.75 4.875 -6 6 C-8.3329866 6.04022391 -10.66706666 6.04320247 -13 6 C-13 5.01 -13 4.02 -13 3 C-11.40084119 2.30093058 -9.79544955 1.61610532 -8.1875 0.9375 C-7.29417969 0.55464844 -6.40085937 0.17179687 -5.48046875 -0.22265625 C-3 -1 -3 -1 0 0 Z " fill="#5EB5E6" transform="translate(33,60)"/>
<path d="M0 0 C0.66 0.66 1.32 1.32 2 2 C1.33355469 2.02578125 0.66710937 2.0515625 -0.01953125 2.078125 C-7.2644471 2.52396598 -13.31262981 4.21898532 -20 7 C-20.33 6.01 -20.66 5.02 -21 4 C-13.81921437 1.27834859 -7.71908047 -0.74700779 0 0 Z " fill="#2E79BD" transform="translate(178,8)"/>
<path d="M0 0 C0.6875 2.0625 0.6875 2.0625 1 4 C0.01 4 -0.98 4 -2 4 C-2 3.01 -2 2.02 -2 1 C-12.56 1 -23.12 1 -34 1 C-34 0.67 -34 0.34 -34 0 C-29.64028686 -0.16775443 -25.28038583 -0.32829897 -20.92016602 -0.48217773 C-19.43702051 -0.53553529 -17.95394439 -0.59085973 -16.47094727 -0.64819336 C-14.33885663 -0.73027921 -12.20661621 -0.80528001 -10.07421875 -0.87890625 C-8.14968872 -0.94960327 -8.14968872 -0.94960327 -6.1862793 -1.02172852 C-3 -1 -3 -1 0 0 Z " fill="#3586C7" transform="translate(248,68)"/>
<path d="M0 0 C6.93 0.33 13.86 0.66 21 1 C21 1.33 21 1.66 21 2 C14.03220597 3.32719886 7.07011089 3.08825381 0 3 C0 2.01 0 1.02 0 0 Z " fill="#438AC6" transform="translate(68,64)"/>
<path d="M0 0 C0.66 0 1.32 0 2 0 C1.85820962 2.22942748 1.71140302 4.45853628 1.5625 6.6875 C1.48128906 7.92886719 1.40007812 9.17023437 1.31640625 10.44921875 C1.05508683 13.38180337 0.65201621 16.13441617 0 19 C-2.63180464 15.05229304 -1.8008948 12.26019851 -1.125 7.8125 C-0.96837891 6.68811523 -0.96837891 6.68811523 -0.80859375 5.54101562 C-0.5495672 3.69250796 -0.27616034 1.84602568 0 0 Z " fill="#357EBF" transform="translate(73,17)"/>
<path d="M0 0 C0.33 0 0.66 0 1 0 C1.33 6.27 1.66 12.54 2 19 C1.34 19.33 0.68 19.66 0 20 C-1.41030314 13.26188501 -0.66561666 6.80977041 0 0 Z " fill="#4085C2" transform="translate(123,47)"/>
<path d="M0 0 C0.66 0.66 1.32 1.32 2 2 C-0.31 5.3 -2.62 8.6 -5 12 C-5.66 11.67 -6.32 11.34 -7 11 C-4.69 7.37 -2.38 3.74 0 0 Z " fill="#2171B9" transform="translate(173,39)"/>
<path d="M0 0 C-2.80390987 2.80390987 -5.11641171 2.66520791 -9 3 C-11.4375 2.5625 -11.4375 2.5625 -13 2 C-12.67 1.34 -12.34 0.68 -12 0 C-10.0390625 -0.44921875 -10.0390625 -0.44921875 -7.625 -0.6875 C-6.43777344 -0.81705078 -6.43777344 -0.81705078 -5.2265625 -0.94921875 C-3 -1 -3 -1 0 0 Z " fill="#337FC1" transform="translate(117,121)"/>
<path d="M0 0 C-6.33333333 4.22222222 -6.33333333 4.22222222 -10.8125 3.625 C-11.534375 3.41875 -12.25625 3.2125 -13 3 C-4.58823529 -1.52941176 -4.58823529 -1.52941176 0 0 Z " fill="#2D7ABE" transform="translate(64,95)"/>
</svg>
